# xmcd CD database file
#
# Track frame offsets:
#	150
#	24054
#	37301
#	58281
#	75711
#	96957
#	113120
#	125587
#	144128
#	158455
#	178975
#	191529
#	211682
#	232121
#	256036
#	269352
#	280450
#	290510
#	303888
#	315501
#
# Disc length: 4372 seconds
#
# Revision: 0
# Processed by: cddbd v1.4PL0 Copyright (c) Steve Scherf et al.
# Submitted via: CDex 1.50
#
DISCID=1a111214
DTITLE=Varied - Jazzebel
DYEAR=2002
DGENRE=Jazz
TTITLE0=I've Got the World on a String
TTITLE1=Route 66
TTITLE2=The Tender Trap
TTITLE3=Funny (But I Still Love you)
TTITLE4=Miss Celie's Blues (Sister)
TTITLE5=My Baby Just Cares for Me
TTITLE6=Mad About the Boy
TTITLE7=All That Jazz
TTITLE8=(Getting Some) Fun Out of Life
TTITLE9=Sister Sadie
TTITLE10=Come Dance With Me
TTITLE11=The Masquerade is Over
TTITLE12=You've Changed
TTITLE13=Sophisticated Lady
TTITLE14=Misty
TTITLE15=The Shadow of Your Smile
TTITLE16=Straighten Up and Fly Right
TTITLE17=C'est Si Bon
TTITLE18=My Man
TTITLE19=Let There Be Love
EXTD=YEAR: 2002
EXTT0=
EXTT1=
EXTT2=
EXTT3=
EXTT4=
EXTT5=
EXTT6=
EXTT7=
EXTT8=
EXTT9=
EXTT10=
EXTT11=
EXTT12=
EXTT13=
EXTT14=
EXTT15=
EXTT16=
EXTT17=
EXTT18=
EXTT19=
PLAYORDER=
